<svg xmlns="http://www.w3.org/2000/svg" width="16" height="16" viewBox="0 0 16 16" fill="none">
    <path fill-rule="evenodd" clip-rule="evenodd" d="M15.2002 12.7702C14.8301 11.7838 14.2626 10.8834 13.5325 10.1242C12.8023 9.36507 11.925 8.76311 10.9542 8.35526C11.4821 7.92134 11.9084 7.37674 12.2031 6.75991C12.4977 6.14307 12.6534 5.46902 12.6593 4.78535C12.6402 3.58721 12.1781 2.43866 11.3623 1.56156C10.5465 0.684463 9.4348 0.141054 8.24202 0.036337C7.85142 -0.0121123 7.45636 -0.0121123 7.06576 0.036337C5.87367 0.141949 4.7629 0.685751 3.94786 1.56276C3.13283 2.43976 2.67128 3.58781 2.6523 4.78535C2.65797 5.46905 2.81364 6.14316 3.10828 6.76002C3.40292 7.37689 3.82936 7.92147 4.35744 8.35526C3.38644 8.76295 2.50887 9.36483 1.77856 10.124C1.04826 10.8832 0.480596 11.7837 0.110393 12.7702C0.00596568 13.0587 -0.0250348 13.3686 0.0202123 13.6721C0.0654595 13.9755 0.185525 14.2629 0.369554 14.5083C0.56052 14.7603 0.807596 14.9643 1.09115 15.104C1.3747 15.2438 1.68691 15.3154 2.00296 15.3132H13.3153C13.6311 15.3153 13.943 15.2436 14.2262 15.1039C14.5095 14.9642 14.7562 14.7602 14.9468 14.5083C15.1304 14.2626 15.2497 13.975 15.294 13.6715C15.3382 13.3679 15.306 13.0581 15.2002 12.7702ZM4.6539 4.78535C4.66712 4.05966 4.95052 3.36503 5.44863 2.8375C5.94674 2.30996 6.62368 1.9875 7.34689 1.93326C7.55299 1.90773 7.76147 1.90773 7.96757 1.93326C8.51148 2.01671 9.02008 2.25452 9.43308 2.61844C9.84607 2.98236 10.1462 3.45716 10.2977 3.98655C10.4493 4.51595 10.446 5.07773 10.2883 5.60533C10.1306 6.13292 9.825 6.60419 9.4078 6.96328C8.9906 7.32236 8.47929 7.5542 7.93444 7.63132C7.38959 7.70843 6.83405 7.62758 6.33372 7.39836C5.83338 7.16914 5.40922 6.80116 5.11149 6.33803C4.81376 5.8749 4.65495 5.33605 4.6539 4.78535ZM2.00104 13.399C2.45426 12.2688 3.23519 11.3002 4.24324 10.618C5.2513 9.93584 6.44035 9.57129 7.65724 9.57129C8.87414 9.57129 10.0632 9.93584 11.0712 10.618C12.0793 11.3002 12.8602 12.2688 13.3134 13.399H2.00296H2.00104Z" fill="#22262A"/>
</svg>