<svg xmlns="http://www.w3.org/2000/svg" width="20" height="20" viewBox="0 0 20 20" fill="none">
    <path d="M7.94176 16.7359C8.17962 16.7359 8.37245 16.5431 8.37245 16.3052C8.37245 16.0673 8.17962 15.8745 7.94176 15.8745C7.7039 15.8745 7.51108 16.0673 7.51108 16.3052C7.51108 16.5431 7.7039 16.7359 7.94176 16.7359Z" fill="#22262A" stroke="#22262A" stroke-width="1.53132" stroke-miterlimit="10" stroke-linecap="round" stroke-linejoin="round"/>
    <path d="M13.9713 16.7359C14.2092 16.7359 14.402 16.5431 14.402 16.3052C14.402 16.0673 14.2092 15.8745 13.9713 15.8745C13.7335 15.8745 13.5406 16.0673 13.5406 16.3052C13.5406 16.5431 13.7335 16.7359 13.9713 16.7359Z" fill="#22262A" stroke="#22262A" stroke-width="1.53132" stroke-miterlimit="10" stroke-linecap="round" stroke-linejoin="round"/>
    <path d="M3.20422 2.95361H4.92696L6.6497 13.29H15.2634L16.9861 5.53772H5.78833" stroke="#22262A" stroke-width="2" stroke-linecap="round" stroke-linejoin="round"/>
</svg>

